<svg width="24" height="24" viewBox="0 0 24 24" fill="none" xmlns="http://www.w3.org/2000/svg">
<path d="M11.0026 14.0624C11.5505 13.9935 12 14.4477 12 15C12 15.5523 11.5492 15.9915 11.0046 16.0831C9.78253 16.2887 8.64516 16.8696 7.75736 17.7574C6.86956 18.6452 6.28871 19.7825 6.08312 21.0046C5.9915 21.5492 5.55228 22 5 22C4.44772 22 3.99355 21.5505 4.06239 21.0026C4.28276 19.2486 5.0799 17.6064 6.34315 16.3431C7.60639 15.0799 9.2486 14.2828 11.0026 14.0624ZM12 13C8.685 13 6 10.315 6 7C6 3.685 8.685 1 12 1C15.315 1 18 3.685 18 7C18 10.315 15.315 13 12 13ZM12 11C14.21 11 16 9.21 16 7C16 4.79 14.21 3 12 3C9.79 3 8 4.79 8 7C8 9.21 9.79 11 12 11ZM21 16.5C21 16.7761 21.2239 17 21.5 17C21.7761 17 22 17.2239 22 17.5V21C22 21.5523 21.5523 22 21 22H15C14.4477 22 14 21.5523 14 21V17.5C14 17.2239 14.2239 17 14.5 17C14.7761 17 15 16.7761 15 16.5V16C15 15.2044 15.3161 14.4413 15.8787 13.8787C16.4413 13.3161 17.2044 13 18 13C18.7956 13 19.5587 13.3161 20.1213 13.8787C20.6839 14.4413 21 15.2044 21 16V16.5ZM18 17C18.5523 17 19 16.5523 19 16C19 15.7348 18.8946 15.4804 18.7071 15.2929C18.5196 15.1054 18.2652 15 18 15C17.7348 15 17.4804 15.1054 17.2929 15.2929C17.1054 15.4804 17 15.7348 17 16C17 16.5523 17.4477 17 18 17Z" fill="#003366"/>
</svg>
