<svg width="32" height="32" viewBox="0 0 32 32" fill="none" xmlns="http://www.w3.org/2000/svg">
<path d="M19.9987 2.66797H7.9987C7.29145 2.66797 6.61318 2.94892 6.11308 3.44902C5.61298 3.94911 5.33203 4.62739 5.33203 5.33464V26.668C5.33203 27.3752 5.61298 28.0535 6.11308 28.5536C6.61318 29.0537 7.29145 29.3346 7.9987 29.3346H23.9987C24.7059 29.3346 25.3842 29.0537 25.8843 28.5536C26.3844 28.0535 26.6654 27.3752 26.6654 26.668V9.33464L19.9987 2.66797Z" stroke="#888888" stroke-width="1.5" stroke-linecap="round" stroke-linejoin="round"/>
<path d="M18.668 2.66797V8.0013C18.668 8.70855 18.9489 9.38682 19.449 9.88692C19.9491 10.387 20.6274 10.668 21.3346 10.668H26.668" stroke="#888888" stroke-width="1.5" stroke-linecap="round" stroke-linejoin="round"/>
<path d="M12 20H20" stroke="#888888" stroke-width="1.5" stroke-linecap="round" stroke-linejoin="round"/>
<path d="M16 24V16" stroke="#888888" stroke-width="1.5" stroke-linecap="round" stroke-linejoin="round"/>
</svg>
