<svg width="32" height="32" viewBox="0 0 32 32" fill="none" xmlns="http://www.w3.org/2000/svg">
<path d="M13.6914 28C13.9255 28.4054 14.2621 28.742 14.6675 28.976C15.0728 29.21 15.5327 29.3332 16.0007 29.3332C16.4688 29.3332 16.9286 29.21 17.334 28.976C17.7394 28.742 18.076 28.4054 18.3101 28" stroke="#003366" stroke-width="2" stroke-linecap="round" stroke-linejoin="round"/>
<path d="M4.34836 20.435C4.17418 20.6259 4.05923 20.8633 4.0175 21.1184C3.97577 21.3734 4.00905 21.6351 4.1133 21.8715C4.21755 22.108 4.38827 22.3091 4.6047 22.4503C4.82113 22.5915 5.07393 22.6668 5.33236 22.667H26.6657C26.9241 22.6671 27.1769 22.5921 27.3935 22.4511C27.6101 22.3102 27.781 22.1093 27.8855 21.873C27.9901 21.6367 28.0237 21.3751 27.9823 21.12C27.9409 20.865 27.8263 20.6274 27.6524 20.4363C25.879 18.6083 23.999 16.6657 23.999 10.667C23.999 8.54526 23.1562 6.51043 21.6559 5.01014C20.1556 3.50985 18.1208 2.66699 15.999 2.66699C13.8773 2.66699 11.8425 3.50985 10.3422 5.01014C8.84188 6.51043 7.99903 8.54526 7.99903 10.667C7.99903 16.6657 6.11769 18.6083 4.34836 20.435Z" stroke="#003366" stroke-width="2" stroke-linecap="round" stroke-linejoin="round"/>
</svg>
