<svg width="32" height="32" viewBox="0 0 32 32" fill="none" xmlns="http://www.w3.org/2000/svg">
<path d="M4.55 0C3.15 0 2 1.15 2 2.55V29.45C2 30.85 3.15 32 4.55 32H27.45C28.85 32 30 30.85 30 29.45V10.15L20.55 0H4.55Z" fill="#8C181A"/>
<path d="M29.9992 10.2016V10.7016H23.5992C23.5992 10.7016 20.4492 10.0516 20.5492 7.35156C20.5492 7.35156 20.6492 10.2016 23.5492 10.2016H29.9992Z" fill="#6B0D12"/>
<path opacity="0.5" d="M20.5469 0V7.3C20.5469 8.15 21.0969 10.2 23.5969 10.2H29.9969L20.5469 0Z" fill="white"/>
<path d="M9.44687 24.4984H7.79688V26.5484C7.79688 26.7484 7.64687 26.8984 7.39687 26.8984C7.19687 26.8984 7.04688 26.7484 7.04688 26.5484V21.4484C7.04688 21.1484 7.29687 20.8984 7.59687 20.8984H9.44687C10.6469 20.8984 11.3469 21.7484 11.3469 22.6984C11.3469 23.6984 10.6469 24.4984 9.44687 24.4984ZM9.39687 21.5484H7.79688V23.8484H9.39687C10.0969 23.8484 10.5969 23.3984 10.5969 22.6984C10.5969 21.9984 10.0969 21.5484 9.39687 21.5484ZM14.5969 26.8984H13.0969C12.7969 26.8984 12.5469 26.6484 12.5469 26.3484V21.4484C12.5469 21.1484 12.7969 20.8984 13.0969 20.8984H14.5969C16.4469 20.8984 17.6969 22.1984 17.6969 23.8984C17.6969 25.5984 16.4969 26.8984 14.5969 26.8984ZM14.5969 21.5484H13.2969V26.1984H14.5969C16.0469 26.1984 16.8969 25.1484 16.8969 23.8484C16.9469 22.5984 16.0969 21.5484 14.5969 21.5484ZM22.7469 21.5484H19.8469V23.4984H22.6969C22.8969 23.4984 22.9969 23.6484 22.9969 23.8484C22.9969 24.0484 22.8469 24.1484 22.6969 24.1484H19.8469V26.5484C19.8469 26.7484 19.6969 26.8984 19.4469 26.8984C19.2469 26.8984 19.0969 26.7484 19.0969 26.5484V21.4484C19.0969 21.1484 19.3469 20.8984 19.6469 20.8984H22.7469C22.9469 20.8984 23.0469 21.0484 23.0469 21.2484C23.0969 21.3984 22.9469 21.5484 22.7469 21.5484Z" fill="white"/>
</svg>
