<svg width="24" height="24" viewBox="0 0 24 24" fill="none" xmlns="http://www.w3.org/2000/svg">
<path d="M14.5 22H18C18.5304 22 19.0391 21.7893 19.4142 21.4142C19.7893 21.0391 20 20.5304 20 20V7L15 2H6C5.46957 2 4.96086 2.21071 4.58579 2.58579C4.21071 2.96086 4 3.46957 4 4V8" stroke="#003366" stroke-width="1.5" stroke-linecap="round" stroke-linejoin="round"/>
<path d="M14 2V6C14 6.53043 14.2107 7.03914 14.5858 7.41421C14.9609 7.78929 15.4696 8 16 8H20" stroke="#003366" stroke-width="1.5" stroke-linecap="round" stroke-linejoin="round"/>
<path d="M2.9991 13.0998C2.69092 13.2777 2.43578 13.5346 2.26 13.8439C2.08421 14.1533 1.99415 14.504 1.9991 14.8598V18.0998C1.98752 18.456 2.07134 18.8088 2.24188 19.1218C2.41242 19.4347 2.66349 19.6964 2.9691 19.8798L5.9991 21.6998C6.30579 21.8825 6.65578 21.9797 7.01274 21.9815C7.3697 21.9832 7.72063 21.8894 8.0291 21.7098L10.9991 19.8998C11.3073 19.7219 11.5624 19.465 11.7382 19.1556C11.914 18.8463 12.0041 18.4956 11.9991 18.1398V14.8998C12.0107 14.5436 11.9269 14.1907 11.7563 13.8778C11.5858 13.5648 11.3347 13.3031 11.0291 13.1198L7.9991 11.2998C7.69242 11.1171 7.34243 11.0198 6.98547 11.0181C6.6285 11.0163 6.27757 11.1101 5.9691 11.2898L2.9991 13.0998Z" stroke="#003366" stroke-width="1.5" stroke-linecap="round" stroke-linejoin="round"/>
<path d="M7 17V22" stroke="#003366" stroke-width="1.5" stroke-linecap="round" stroke-linejoin="round"/>
<path d="M11.7008 14.2002L7.00078 17.0002L2.30078 14.2002" stroke="#003366" stroke-width="1.5" stroke-linecap="round" stroke-linejoin="round"/>
</svg>
