<svg width="16" height="16" viewBox="0 0 16 16" fill="none" xmlns="http://www.w3.org/2000/svg">
<path fill-rule="evenodd" clip-rule="evenodd" d="M13.6977 4.18927C14.0077 4.46327 14.0367 4.93727 13.7627 5.24927L8.01275 11.7493C7.94634 11.8244 7.86556 11.8854 7.77518 11.9287C7.68479 11.972 7.58664 11.9968 7.48652 12.0016C7.38639 12.0063 7.28633 11.991 7.19225 11.9564C7.09817 11.9218 7.01197 11.8687 6.93875 11.8003L3.18875 8.30027C3.04448 8.16431 2.95991 7.97678 2.95352 7.77865C2.94712 7.58052 3.01942 7.38792 3.15462 7.24295C3.28981 7.09797 3.4769 7.01242 3.67499 7.00498C3.87309 6.99755 4.06606 7.06884 4.21175 7.20327L7.40175 10.1733L12.6417 4.25327C12.7071 4.17936 12.7863 4.11907 12.875 4.07584C12.9637 4.03262 13.06 4.00731 13.1585 4.00136C13.2569 3.99542 13.3556 4.00896 13.4488 4.0412C13.542 4.07344 13.628 4.12376 13.7017 4.18927H13.6977Z" fill="white"/>
</svg>
