<svg width="16" height="16" viewBox="0 0 16 16" fill="none" xmlns="http://www.w3.org/2000/svg">
<path d="M12.6654 4V13.3333C12.6654 13.687 12.5249 14.0261 12.2748 14.2761C12.0248 14.5262 11.6857 14.6667 11.332 14.6667H4.66536C4.31174 14.6667 3.9726 14.5262 3.72256 14.2761C3.47251 14.0261 3.33203 13.687 3.33203 13.3333V4" stroke="#DC4545" stroke-width="1.5" stroke-linecap="round" stroke-linejoin="round"/>
<path d="M2 4H14" stroke="#DC4545" stroke-width="1.5" stroke-linecap="round" stroke-linejoin="round"/>
<path d="M5.33594 3.9987V2.66536C5.33594 2.31174 5.47641 1.9726 5.72646 1.72256C5.97651 1.47251 6.31565 1.33203 6.66927 1.33203H9.33594C9.68956 1.33203 10.0287 1.47251 10.2787 1.72256C10.5288 1.9726 10.6693 2.31174 10.6693 2.66536V3.9987" stroke="#DC4545" stroke-width="1.5" stroke-linecap="round" stroke-linejoin="round"/>
</svg>
