<svg width="32" height="32" viewBox="0 0 32 32" fill="none" xmlns="http://www.w3.org/2000/svg">
<rect x="8" y="11" width="16" height="10" rx="1.5" fill="#474747"/>
<circle cx="16" cy="16" r="13.25" stroke="#474747" stroke-width="1.5"/>
<path d="M22.4 11H9.6C8.72 11 8.008 11.5625 8.008 12.25L8 19.75C8 20.4375 8.72 21 9.6 21H22.4C23.28 21 24 20.4375 24 19.75V12.25C24 11.5625 23.28 11 22.4 11ZM21.6 19.75H10.4C9.96 19.75 9.6 19.4688 9.6 19.125V13.5L15.152 16.2125C15.672 16.4688 16.328 16.4688 16.848 16.2125L22.4 13.5V19.125C22.4 19.4688 22.04 19.75 21.6 19.75ZM16 15.375L9.6 12.25H22.4L16 15.375Z" fill="white"/>
<rect x="8" y="11" width="2" height="10" rx="1" fill="#474747"/>
<rect x="8" y="13" width="2" height="16" rx="1" transform="rotate(-90 8 13)" fill="#474747"/>
<rect x="8" y="21" width="2" height="16" rx="1" transform="rotate(-90 8 21)" fill="#474747"/>
<rect x="22" y="11" width="2" height="10" rx="1" fill="#474747"/>
</svg>
