<svg width="32" height="32" viewBox="0 0 32 32" fill="none" xmlns="http://www.w3.org/2000/svg">
<path d="M15.9993 29.3337C23.3631 29.3337 29.3327 23.3641 29.3327 16.0003C29.3327 8.63653 23.3631 2.66699 15.9993 2.66699C8.63555 2.66699 2.66602 8.63653 2.66602 16.0003C2.66602 23.3641 8.63555 29.3337 15.9993 29.3337Z" stroke="#003366" stroke-width="2" stroke-linecap="round" stroke-linejoin="round"/>
<path d="M16 17.333C18.2091 17.333 20 15.5421 20 13.333C20 11.1239 18.2091 9.33301 16 9.33301C13.7909 9.33301 12 11.1239 12 13.333C12 15.5421 13.7909 17.333 16 17.333Z" stroke="#003366" stroke-width="2" stroke-linecap="round" stroke-linejoin="round"/>
<path d="M9.33398 27.5497V25.3337C9.33398 24.6264 9.61494 23.9481 10.115 23.448C10.6151 22.9479 11.2934 22.667 12.0007 22.667H20.0007C20.7079 22.667 21.3862 22.9479 21.8863 23.448C22.3864 23.9481 22.6673 24.6264 22.6673 25.3337V27.5497" stroke="#003366" stroke-width="2" stroke-linecap="round" stroke-linejoin="round"/>
</svg>
