<svg width="32" height="32" viewBox="0 0 32 32" fill="none" xmlns="http://www.w3.org/2000/svg">
<path fill-rule="evenodd" clip-rule="evenodd" d="M15.9993 29.3334C8.63535 29.3334 2.66602 23.3641 2.66602 16.0001C2.66602 8.63608 8.63535 2.66675 15.9993 2.66675C23.3633 2.66675 29.3327 8.63608 29.3327 16.0001C29.3327 23.3641 23.3633 29.3334 15.9993 29.3334ZM15.9993 27.7334C19.1112 27.7334 22.0956 26.4972 24.2961 24.2968C26.4965 22.0964 27.7327 19.112 27.7327 16.0001C27.7327 12.8882 26.4965 9.90379 24.2961 7.70336C22.0956 5.50293 19.1112 4.26675 15.9993 4.26675C12.8875 4.26675 9.90306 5.50293 7.70263 7.70336C5.5022 9.90379 4.26602 12.8882 4.26602 16.0001C4.26602 19.112 5.5022 22.0964 7.70263 24.2968C9.90306 26.4972 12.8875 27.7334 15.9993 27.7334ZM18.6647 20.5827L17.27 22.0001L12.386 16.9641C12.1375 16.7047 11.9987 16.3593 11.9987 16.0001C11.9987 15.6408 12.1375 15.2955 12.386 15.0361L17.27 10.0001L18.666 11.4174L14.2393 16.0001L18.666 20.5841L18.6647 20.5827Z" fill="#474747"/>
</svg>
