<svg width="188" height="62" viewBox="0 0 188 62" fill="none" xmlns="http://www.w3.org/2000/svg">
<g clip-path="url(#clip0_1101_375)">
<path d="M25.1544 22.5426C32.3595 16.8265 41.9875 3.93842 39.9977 1.09191C36.6075 0.151206 33.3953 0 33.3953 0C33.7184 0.316726 33.6814 1.44453 33.5452 2.25317C32.7198 7.15932 25.5933 15.1778 20.3079 19.5628C14.6597 24.2627 4.70897 34.4963 4.9119 40.2896C3.35479 32.9273 13.9382 21.3933 18.5699 17.5522C24.2238 12.8523 32.1552 2.25438 29.6333 0.186085L29.4364 0.011896C25.0105 0.310882 21.4711 1.55783 21.4711 1.55783C23.1171 1.14413 22.9186 6.87766 16.0184 12.7957C13.264 15.1531 6.17297 21.6586 3.78747 27.0892C5.94197 19.1898 11.5928 14.0033 13.307 12.2832C18.4262 7.14621 18.9921 2.74208 17.678 3.07452C15.783 4.00797 13.8152 5.14747 12.0506 6.54259C-2.33029 17.9067 -3.80006 37.3689 7.42786 50.5817C5.69302 41.3363 19.2621 27.2182 25.1544 22.5426ZM30.8339 29.417C37.1484 24.4108 42.8797 18.2085 46.8979 11.8709C46.8979 11.8709 51.0643 5.02126 44.7674 2.82514L44.6504 2.77857C41.4278 10.4846 34.9916 18.9938 27.2779 25.1091C20.0741 30.8194 7.34486 43.3363 7.42786 50.5817C8.79091 52.2297 10.2791 53.5369 11.8777 54.8334L11.8644 54.7522C9.7378 47.432 23.0948 35.5502 30.8339 29.417ZM56.6946 13.7565C56.6946 13.7565 56.4147 11.3427 53.3089 8.60646C53.2262 8.82581 52.7757 9.94615 52.6868 10.1697C50.5281 15.4737 46.8225 21.1813 42.2098 26.2425C57.776 21.5642 56.8886 14.9815 56.6946 13.7565ZM62.0523 23.3019L62.0345 23.2917C61.5532 21.3874 60.8847 19.5554 60.0578 17.8093C59.1333 20.6179 56.8518 23.6199 52.0869 26.2921C52.3135 27.7178 52.4351 29.179 52.4351 30.6669L52.4171 31.1098C52.5357 36.8651 50.7963 42.6964 47.0521 47.6946C39.7282 57.4754 26.9432 61.1258 15.8054 57.4459C29.5006 65.2931 47.3457 61.8108 56.9366 49.0069C62.6967 41.3157 64.2599 31.8775 62.0523 23.3019Z" fill="white"/>
<path d="M90.1316 54.405H86.6861C86.6861 53.9422 86.3596 52.6318 85.7066 50.4722H80.7321C80.0572 52.5964 79.72 53.9073 79.72 54.405H76.479C76.479 54.1316 77.317 51.8885 78.993 47.6751C80.669 43.4621 81.5071 41.1415 81.5071 40.7139H85.5768C85.5768 41.1134 86.3359 43.4007 87.8542 47.5753C89.3726 51.75 90.1316 54.0266 90.1316 54.405ZM85.1574 48.4642C83.9299 44.8467 83.3162 42.8907 83.3162 42.5964H83.1442C83.1442 42.87 82.5086 44.8258 81.2383 48.4642H85.1574Z" fill="white"/>
<path d="M100.613 52.1126L100.527 54.405H91.5796C91.6657 52.5054 91.7092 50.1182 91.7092 47.2441C91.7092 44.6084 91.6657 42.4313 91.5796 40.7139H94.6052C94.5188 42.3055 94.4761 44.482 94.4761 47.2441C94.4761 49.3539 94.4294 51.0295 94.3362 52.2705C96.3171 52.2705 98.4095 52.2179 100.613 52.1126Z" fill="white"/>
<path d="M115.774 50.6725C115.774 53.4134 113.757 54.7837 109.723 54.7837C108.352 54.7837 107.077 54.6224 105.9 54.3001L106.428 51.955C107.591 52.3477 108.689 52.544 109.723 52.544C110.871 52.544 111.697 52.4356 112.199 52.2178C112.701 52.0007 112.953 51.6361 112.953 51.1245C112.953 50.5916 112.716 50.1431 112.242 49.7783C111.833 49.4559 111.004 49.0353 109.755 48.5164C108.621 48.0399 107.777 47.5211 107.225 46.9601C106.528 46.2522 106.18 45.3792 106.18 44.3417C106.18 43.1362 106.638 42.1932 107.553 41.5133C108.468 40.8333 109.784 40.4932 111.499 40.4932C112.906 40.4932 114.087 40.6088 115.041 40.8401L114.643 43.1746C113.674 42.8313 112.626 42.6592 111.499 42.6592C109.805 42.6592 108.958 43.1011 108.958 43.9842C108.958 44.4539 109.155 44.8359 109.55 45.1306C109.895 45.3827 110.645 45.737 111.801 46.1928C113.028 46.6762 113.947 47.2091 114.557 47.7909C115.368 48.5693 115.774 49.5297 115.774 50.6725Z" fill="white"/>
<path d="M129.238 54.405H126.191C126.263 52.0845 126.299 50.0725 126.299 48.3694H120.872C120.872 49.8976 120.908 51.9094 120.98 54.405H117.932C118.026 52.0918 118.073 49.7045 118.073 47.2441C118.073 44.7555 118.026 42.5787 117.932 40.7139H120.98C120.894 42.684 120.85 44.5066 120.85 46.1818H126.32C126.32 44.7026 126.277 42.8799 126.191 40.7139H129.238C129.137 42.4946 129.087 44.6711 129.087 47.2441C129.087 49.9292 129.137 52.3162 129.238 54.405Z" fill="white"/>
<path d="M135.164 54.405H132.117C132.21 52.2318 132.257 49.845 132.257 47.2441C132.257 44.6853 132.21 42.5084 132.117 40.7139H135.164C135.071 42.4804 135.024 44.6572 135.024 47.2441C135.024 49.887 135.071 52.2743 135.164 54.405Z" fill="white"/>
<path d="M149.395 54.4047H146.209C145.376 51.9231 144.737 50.3913 144.292 49.8093C143.847 49.2277 143.129 48.9368 142.139 48.9368C141.722 48.9368 141.324 48.9404 140.943 48.9472C140.943 50.7488 140.975 52.568 141.04 54.4047H138.047C138.14 52.2875 138.187 49.9006 138.187 47.2437C138.187 44.692 138.14 42.5152 138.047 40.7134H139.91C140.125 40.7134 140.575 40.703 141.261 40.6821C141.946 40.661 142.58 40.6504 143.161 40.6504C146.456 40.6504 148.103 41.7513 148.103 43.9524C148.103 45.6981 147.163 46.9144 145.282 47.6012V47.7591C146.007 47.9554 146.642 48.5075 147.188 49.4152C147.734 50.3231 148.47 51.9864 149.395 54.4047ZM145.358 44.7303C145.358 43.3356 144.439 42.6379 142.602 42.6379C141.927 42.6379 141.331 42.687 140.815 42.785C140.894 43.872 140.933 45.2877 140.933 47.0332C141.328 47.0474 141.661 47.0542 141.934 47.0542C144.217 47.0544 145.358 46.28 145.358 44.7303Z" fill="white"/>
<path d="M163.18 54.405H159.736C159.736 53.9422 159.409 52.6318 158.756 50.4722H153.781C153.107 52.5964 152.769 53.9073 152.769 54.405H149.528C149.528 54.1316 150.366 51.8885 152.042 47.6751C153.719 43.4621 154.556 41.1415 154.556 40.7139H158.626C158.626 41.1134 159.386 43.4007 160.903 47.5753C162.422 51.75 163.18 54.0266 163.18 54.405ZM158.206 48.4642C156.98 44.8467 156.365 42.8907 156.365 42.5964H156.193C156.193 42.87 155.559 44.8258 154.287 48.4642H158.206Z" fill="white"/>
<path d="M182.836 40.7142C182.836 41.3662 182.119 43.6796 180.683 47.6542C179.247 51.6295 178.529 53.8795 178.529 54.4053H175.687C175.687 53.8515 175.253 52.2917 174.384 49.7256C173.459 46.978 172.938 45.1659 172.822 44.2895H172.64C172.525 45.1726 172.044 46.999 171.197 49.7678C170.407 52.3547 170.012 53.9007 170.012 54.405H167.105C167.105 53.7463 166.399 51.401 164.984 47.3702C163.57 43.3392 162.863 41.1206 162.863 40.7139H166.277C166.277 41.1557 166.685 42.915 167.504 45.9926C168.322 49.0703 168.732 50.8967 168.732 51.471H168.904C168.904 50.8964 169.342 49.1035 170.217 46.0924C171.093 43.0815 171.531 41.2887 171.531 40.7139H174.6C174.6 41.2398 175.036 43.064 175.913 46.1873C176.789 49.3104 177.227 51.0717 177.227 51.4713H177.399C177.399 50.9667 177.795 49.2525 178.588 46.3296C179.382 43.406 179.778 41.5345 179.778 40.7142H182.836Z" fill="white"/>
<path d="M187.332 54.405H184.284C184.378 52.2318 184.425 49.845 184.425 47.2441C184.425 44.6853 184.378 42.5084 184.284 40.7139H187.332C187.238 42.4804 187.191 44.6572 187.191 47.2441C187.191 49.887 187.238 52.2743 187.332 54.405Z" fill="white"/>
<path d="M96.6773 13.61C95.649 13.0788 94.2479 13.2659 92.4743 14.171C91.0425 14.8998 90.1763 15.7953 89.8739 16.8585C89.8332 17.0164 89.8434 17.1737 89.9038 17.3311C90.2668 18.0987 91.5466 18.5419 93.7441 18.66C95.9413 18.7779 97.1006 19.3096 97.2215 20.2545C97.4832 22.1247 97.0703 23.4928 95.9817 24.3595C92.9777 26.7023 89.6014 27.9429 85.852 28.0804C81.1548 28.2576 78.6555 26.545 78.3531 22.9418C78.2119 21.1306 78.6253 19.2407 79.5928 17.2716C80.1373 16.1894 80.7315 15.2443 81.3768 14.4365C81.6791 14.043 81.9411 13.9544 82.1629 14.1708C82.3846 14.3879 82.3243 14.7321 81.9818 15.2045C80.228 17.7252 79.6733 19.8117 80.3186 21.4651C81.1449 23.5125 83.0801 24.5071 86.124 24.4478C89.7123 24.3886 92.6656 23.5025 94.9839 21.7899C94.5199 21.6327 93.5325 21.5046 92.0208 21.4061C90.0247 21.2487 88.8555 20.6779 88.513 19.6933C88.1503 18.6697 88.1701 17.5962 88.5736 16.4741C89.4602 14.0333 90.8309 12.153 92.6859 10.8336C94.238 9.73142 95.6188 9.32771 96.8284 9.62271C97.9975 9.91826 98.33 10.9915 97.8262 12.8418C97.6044 13.6296 97.2215 13.8857 96.6773 13.61Z" fill="white"/>
<path d="M104.229 15.7066C105.016 13.6002 105.882 12.5571 106.83 12.5764C107.535 12.5963 108.17 13.0489 108.735 13.935C109.259 14.7816 109.571 15.7563 109.672 16.8587C109.773 17.9416 109.591 19.3888 109.128 21.1998C108.684 22.9911 107.807 24.6551 106.497 26.1908C105.187 27.7262 104.088 28.5338 103.201 28.6124C102.475 28.7105 101.407 28.6124 99.9961 28.3168C99.3106 28.1788 98.7012 28.0362 98.1666 27.8887C97.6328 27.7408 97.1945 27.5979 96.8514 27.4602C96.6297 27.3615 96.5489 27.1944 96.6096 26.9582C96.6702 26.7022 96.862 26.6039 97.184 26.6627C98.3935 26.8399 99.8347 26.7413 101.508 26.3674C102.335 26.1903 103.544 25.4223 105.137 24.064C105.942 23.3746 106.593 22.7594 107.087 22.2182C107.581 21.6769 107.898 21.1896 108.039 20.7564C108.019 20.6581 107.984 20.535 107.933 20.3873C107.883 20.2397 107.828 20.0773 107.767 19.9C106.921 20.9634 105.902 21.2291 104.713 20.6976C103.362 20.107 103.201 18.4436 104.229 15.7066ZM107.102 17.0948C106.517 16.1697 105.892 16.1303 105.227 16.9768C105.731 17.5281 106.356 17.5675 107.102 17.0948Z" fill="white"/>
<path d="M116.148 1.48669C116.542 0.657237 116.799 0.849974 116.918 2.06543L117.629 9.12735C118.222 15.4556 118.083 19.4405 117.214 21.0799C117.017 21.4272 116.829 21.572 116.651 21.5139C116.454 21.4563 116.365 20.9931 116.384 20.1248C116.404 19.3917 116.325 18.181 116.148 16.4927C115.97 14.8044 115.703 12.6578 115.347 10.0535L114.725 5.24904C114.666 4.84398 114.725 4.44885 114.903 4.06257L116.148 1.48669Z" fill="white"/>
<path d="M114.985 26.2484C114.683 26.0315 114.572 25.7953 114.652 25.5397C114.733 25.2837 114.985 25.2048 115.409 25.3029C117.364 25.697 118.986 25.6474 120.276 25.1556C122.917 24.1711 124.782 22.7045 125.871 20.7552C125.85 20.4012 125.326 19.5253 124.298 18.127C124.157 17.9697 124.117 17.7828 124.177 17.5659L125.024 14.5536C125.367 13.3725 125.891 13.5199 126.597 14.9965C127.524 17.0045 127.735 19.1409 127.231 21.4048C126.929 22.7634 126.163 24.1707 124.933 25.6276C123.704 27.0846 122.454 27.8915 121.184 28.0491C119.107 28.286 117.041 27.6854 114.985 26.2484Z" fill="white"/>
<path d="M131.888 12.8714C131.928 13.0684 131.968 13.3787 132.009 13.8018C132.049 14.2254 132.109 14.7518 132.19 15.3818C132.352 16.6418 132.573 17.4688 132.856 17.8624C133.158 18.2757 133.601 18.5415 134.186 18.6598C134.75 18.7777 135.093 19.0835 135.214 19.5753C135.254 19.6934 135.259 19.841 135.229 20.0182C135.199 20.1953 135.154 20.4218 135.093 20.6973C134.851 21.6819 134.498 22.174 134.035 22.174C131.777 22.174 130.648 20.294 130.648 16.5333C129.862 18.069 128.622 18.8269 126.929 18.8072C125.861 18.8072 125.226 18.3155 125.024 17.3306C124.883 16.5237 124.974 15.9428 125.296 15.5885C125.78 15.057 126.234 14.9386 126.657 15.2341C126.778 15.313 126.868 15.3721 126.929 15.4113C128.078 15.4902 128.884 15.352 129.348 14.9979C129.812 14.6436 130.235 13.8954 130.618 12.7535C130.759 12.3208 130.991 12.1332 131.313 12.1922C131.636 12.2513 131.827 12.4779 131.888 12.8714Z" fill="white"/>
<path d="M162.018 16.7988C162.179 16.3657 162.451 16.2181 162.834 16.3559C163.197 16.5139 163.247 16.8777 162.985 17.4483L162.713 17.9798C164.891 18.7476 166.452 18.1571 167.401 16.2077C167.582 15.7749 167.854 15.637 168.217 15.7943C168.559 15.9521 168.639 16.2573 168.458 16.7099C168.277 17.1823 168.187 17.4974 168.187 17.655C168.226 18.0881 168.619 18.3441 169.365 18.4228C170.112 18.5017 170.605 18.3836 170.847 18.0681C171.109 17.7141 171.341 17.0448 171.544 16.0603C171.604 15.7849 171.774 15.647 172.058 15.647C172.339 15.647 172.521 15.7651 172.601 16.0013C173.225 17.6358 174.152 18.5117 175.383 18.6295C175.846 18.6888 176.148 19.0429 176.29 19.6927C176.431 20.3032 176.421 20.8739 176.26 21.4056C176.099 21.9173 175.806 22.1733 175.383 22.1733C173.569 22.1733 172.339 21.1694 171.694 19.161C171.553 19.5943 171.401 20.0029 171.24 20.3863C171.079 20.7704 170.918 21.1201 170.757 21.4343C170.454 22.0056 170 22.3105 169.396 22.3502C167.984 22.4092 166.896 21.9758 166.131 21.0508C165.325 21.7789 164.366 22.1432 163.258 22.1432C162.149 22.1432 161.271 21.8281 160.627 21.1981C160.243 21.5132 159.845 21.754 159.432 21.9215C159.019 22.0885 158.601 22.1728 158.178 22.1728C157.633 22.1728 157.282 21.6905 157.119 20.7257C157.099 20.6076 157.079 20.4647 157.059 20.2973C157.039 20.1303 157.018 19.9383 156.998 19.7211C156.958 19.2294 157.19 18.8944 157.694 18.7172C157.875 18.6582 158.037 18.6287 158.178 18.6287C160.335 18.492 161.614 17.8817 162.018 16.7988Z" fill="white"/>
<path d="M165.555 4.72036C165.676 4.56279 165.848 4.51341 166.069 4.57247C166.473 4.71072 166.86 4.88787 167.233 5.10396C167.607 5.32086 167.955 5.567 168.277 5.84214C168.438 5.99998 168.469 6.17715 168.368 6.37363L166.916 8.61773C166.775 8.81503 166.594 8.8349 166.373 8.67705C166.17 8.51976 165.445 8.07685 164.196 7.34833C163.973 7.23021 163.933 7.0729 164.074 6.87561L165.555 4.72036Z" fill="white"/>
<path d="M132.713 25.9376C132.834 25.78 133.005 25.7307 133.227 25.7897C133.63 25.9279 134.018 26.1052 134.391 26.3213C134.764 26.5381 135.112 26.7843 135.435 27.0595C135.596 27.2172 135.626 27.3945 135.525 27.5909L134.074 29.8353C133.933 30.0323 133.751 30.0521 133.53 29.8944C133.328 29.737 132.602 29.2941 131.353 28.5657C131.13 28.4476 131.09 28.2901 131.232 28.0929L132.713 25.9376Z" fill="white"/>
<path d="M128.299 25.9376C128.42 25.78 128.591 25.7307 128.813 25.7897C129.216 25.9279 129.604 26.1052 129.977 26.3213C130.35 26.5381 130.697 26.7843 131.02 27.0595C131.181 27.2172 131.212 27.3945 131.111 27.5909L129.66 29.8353C129.518 30.0323 129.337 30.0521 129.115 29.8944C128.913 29.737 128.188 29.2941 126.938 28.5657C126.716 28.4476 126.676 28.2901 126.817 28.0929L128.299 25.9376Z" fill="white"/>
<path d="M167.905 8.16324C168.026 8.00567 168.197 7.95628 168.419 8.01533C168.822 8.15358 169.209 8.33073 169.584 8.54682C169.955 8.76372 170.304 9.00987 170.626 9.28502C170.787 9.44285 170.818 9.62003 170.717 9.81652L169.265 12.0606C169.124 12.2579 168.943 12.2778 168.721 12.1199C168.52 11.9626 167.794 11.5197 166.545 10.7912C166.322 10.6731 166.281 10.5158 166.424 10.3185L167.905 8.16324Z" fill="white"/>
<path d="M163.553 8.16324C163.674 8.00567 163.846 7.95628 164.067 8.01533C164.47 8.15358 164.858 8.33073 165.232 8.54682C165.605 8.76372 165.951 9.00987 166.275 9.28502C166.436 9.44285 166.465 9.62003 166.365 9.81652L164.914 12.0606C164.773 12.2579 164.591 12.2778 164.371 12.1199C164.168 11.9626 163.442 11.5197 162.192 10.7912C161.971 10.6731 161.931 10.5158 162.072 10.3185L163.553 8.16324Z" fill="white"/>
<path d="M88.8289 30.5925C88.9498 30.4349 89.1207 30.3854 89.3429 30.4446C89.7457 30.5828 90.1338 30.7599 90.5071 30.976C90.8798 31.193 91.2275 31.439 91.5501 31.7142C91.7112 31.8721 91.7416 32.0492 91.6409 32.2457L90.1896 34.49C90.0484 34.687 89.8666 34.707 89.6451 34.5491C89.4434 34.3919 88.7179 33.9489 87.468 33.2204C87.246 33.1023 87.2059 32.945 87.3471 32.7476L88.8289 30.5925Z" fill="white"/>
<path d="M84.4746 30.5925C84.5955 30.4349 84.7665 30.3854 84.9886 30.4446C85.3915 30.5828 85.7796 30.7599 86.1529 30.976C86.5255 31.193 86.8732 31.439 87.1959 31.7142C87.3569 31.8721 87.3874 32.0492 87.2866 32.2457L85.8353 34.49C85.6941 34.687 85.5124 34.707 85.2908 34.5491C85.0891 34.3919 84.3636 33.9489 83.1138 33.2204C82.8917 33.1023 82.8516 32.945 82.9928 32.7476L84.4746 30.5925Z" fill="white"/>
<path d="M177.924 4.80899C178.73 10.6171 179.032 14.6036 178.831 16.7693C178.509 20.0376 177.349 21.8387 175.354 22.1736C174.851 22.252 174.567 21.9471 174.507 21.2583C174.487 21.0416 174.471 20.8004 174.462 20.5346C174.451 20.2692 174.457 19.9787 174.478 19.6635C174.518 19.0335 174.809 18.6891 175.354 18.6298C176.482 18.512 177.198 18.1769 177.501 17.6258C177.481 17.3896 177.334 16.1935 177.063 14.0377C176.791 11.8819 176.371 8.76622 175.807 4.69115C175.747 4.31723 175.691 4.0072 175.642 3.76077C175.591 3.51489 175.546 3.32296 175.506 3.18471C175.304 2.71227 175.314 2.25969 175.535 1.82617L176.292 0.349795C176.574 -0.22116 176.866 -0.0931204 177.168 0.733652C177.329 1.12771 177.517 1.49171 177.727 1.82617C177.939 2.16118 178.206 2.45673 178.529 2.71227C178.952 3.04727 178.992 3.43112 178.65 3.86411L177.924 4.80899Z" fill="white"/>
<path d="M183.643 1.49402C184.038 0.664561 184.295 0.857298 184.412 2.07277L185.124 9.13467C185.717 15.4632 185.578 19.4479 184.71 21.0872C184.511 21.4346 184.324 21.5792 184.146 21.5215C183.948 21.4635 183.86 21.0004 183.88 20.1324C183.898 19.3993 183.821 18.1887 183.643 16.5C183.465 14.8118 183.198 12.6651 182.842 10.0608L182.22 5.25665C182.161 4.85132 182.22 4.45617 182.398 4.06991L183.643 1.49402Z" fill="white"/>
<path d="M134.082 18.6594L134.212 18.6592L158.18 18.6299V22.1737L133.903 22.1733L132.413 19.5842L133.95 18.6589L134.082 18.6594Z" fill="white"/>
</g>
<defs>
<clipPath id="clip0_1101_375">
<rect width="187.332" height="62" fill="white"/>
</clipPath>
</defs>
</svg>
