<svg width="192" height="62" viewBox="0 0 192 62" fill="none" xmlns="http://www.w3.org/2000/svg">
<g clip-path="url(#clip0_1101_374)">
<path d="M25.7679 22.5426C33.1488 16.8265 43.0116 3.93842 40.9733 1.09191C37.5004 0.151206 34.2098 0 34.2098 0C34.5408 0.316726 34.5029 1.44453 34.3633 2.25317C33.5179 7.15932 26.2175 15.1778 20.8032 19.5628C15.0173 24.2627 4.82383 34.4964 5.0317 40.2896C3.43662 32.9273 14.2782 21.3933 19.0228 17.5522C24.8146 12.8523 32.9395 2.25438 30.3561 0.186085L30.1543 0.011896C25.6206 0.310882 21.9947 1.55783 21.9947 1.55783C23.6809 1.14413 23.4776 6.87766 16.4091 12.7957C13.5876 15.1531 6.32353 21.6586 3.87985 27.0892C6.0869 19.1898 11.8755 14.0033 13.6315 12.2832C18.8756 7.14621 19.4553 2.74208 18.1091 3.07452C16.1679 4.00797 14.1522 5.14747 12.3446 6.54259C-2.38713 17.9067 -3.89274 37.3689 7.60903 50.5817C5.83188 41.3363 19.7319 27.2182 25.7679 22.5426ZM31.586 29.417C38.0545 24.4108 43.9256 18.2085 48.0418 11.8709C48.0418 11.8709 52.3097 5.02126 45.8593 2.82514L45.7394 2.77857C42.4382 10.4846 35.8451 18.9938 27.9432 25.1091C20.5637 30.8194 7.524 43.3363 7.60903 50.5817C9.00532 52.2297 10.5298 53.5369 12.1674 54.8334L12.1538 54.7522C9.97531 47.432 23.6581 35.5502 31.586 29.417ZM58.0774 13.7565C58.0774 13.7565 57.7907 11.3427 54.6091 8.60646C54.5244 8.82581 54.0629 9.94615 53.9718 10.1697C51.7605 15.4737 47.9645 21.1813 43.2393 26.2425C59.1852 21.5642 58.2761 14.9815 58.0774 13.7565ZM63.5658 23.3019L63.5475 23.2917C63.0545 21.3874 62.3697 19.5554 61.5226 17.8093C60.5756 20.6179 58.2384 23.6199 53.3573 26.2921C53.5895 27.7178 53.714 29.179 53.714 30.6669L53.6956 31.1098C53.817 36.8651 52.0352 42.6964 48.1997 47.6946C40.6972 57.4754 27.6003 61.1258 16.1909 57.4459C30.2202 65.2931 48.5004 61.8108 58.3253 49.0069C64.2259 41.3157 65.8272 31.8775 63.5658 23.3019Z" fill="#003366"/>
<path d="M92.3301 54.405H88.8006C88.8006 53.9422 88.4661 52.6318 87.7971 50.4722H82.7013C82.01 52.5964 81.6645 53.9073 81.6645 54.405H78.3445C78.3445 54.1316 79.203 51.8885 80.9198 47.6751C82.6367 43.4621 83.4952 41.1415 83.4952 40.7139H87.6642C87.6642 41.1134 88.4418 43.4007 89.9972 47.5753C91.5525 51.75 92.3301 54.0266 92.3301 54.405ZM87.2346 48.4642C85.9771 44.8467 85.3484 42.8907 85.3484 42.5964H85.1722C85.1722 42.87 84.5212 44.8258 83.2199 48.4642H87.2346Z" fill="#003366"/>
<path d="M103.067 52.1126L102.979 54.405H93.8132C93.9014 52.5054 93.946 50.1182 93.946 47.2441C93.946 44.6084 93.9014 42.4313 93.8132 40.7139H96.9127C96.8242 42.3055 96.7804 44.482 96.7804 47.2441C96.7804 49.3539 96.7325 51.0295 96.637 52.2705C98.6663 52.2705 100.81 52.2179 103.067 52.1126Z" fill="#003366"/>
<path d="M118.598 50.6725C118.598 53.4134 116.531 54.7837 112.399 54.7837C110.994 54.7837 109.689 54.6224 108.483 54.3001L109.024 51.955C110.215 52.3477 111.34 52.544 112.399 52.544C113.575 52.544 114.421 52.4356 114.936 52.2178C115.45 52.0007 115.708 51.6361 115.708 51.1245C115.708 50.5916 115.465 50.1431 114.98 49.7783C114.561 49.4559 113.711 49.0353 112.432 48.5164C111.27 48.0399 110.406 47.5211 109.84 46.9601C109.127 46.2522 108.77 45.3792 108.77 44.3417C108.77 43.1362 109.239 42.1932 110.176 41.5133C111.114 40.8333 112.461 40.4932 114.219 40.4932C115.66 40.4932 116.869 40.6088 117.847 40.8401L117.439 43.1746C116.447 42.8313 115.373 42.6592 114.219 42.6592C112.483 42.6592 111.616 43.1011 111.616 43.9842C111.616 44.4539 111.818 44.8359 112.222 45.1306C112.575 45.3827 113.344 45.737 114.528 46.1928C115.785 46.6762 116.726 47.2091 117.351 47.7909C118.182 48.5693 118.598 49.5297 118.598 50.6725Z" fill="#003366"/>
<path d="M132.39 54.405H129.269C129.342 52.0845 129.379 50.0725 129.379 48.3694H123.82C123.82 49.8976 123.856 51.9094 123.93 54.405H120.809C120.904 52.0918 120.952 49.7045 120.952 47.2441C120.952 44.7555 120.904 42.5787 120.809 40.7139H123.93C123.842 42.684 123.798 44.5066 123.798 46.1818H129.401C129.401 44.7026 129.357 42.8799 129.269 40.7139H132.39C132.287 42.4946 132.235 44.6711 132.235 47.2441C132.236 49.9292 132.287 52.3162 132.39 54.405Z" fill="#003366"/>
<path d="M138.461 54.405H135.339C135.435 52.2318 135.483 49.845 135.483 47.2441C135.483 44.6853 135.435 42.5084 135.339 40.7139H138.461C138.365 42.4804 138.317 44.6572 138.317 47.2441C138.318 49.887 138.366 52.2743 138.461 54.405Z" fill="#003366"/>
<path d="M153.039 54.4047H149.775C148.922 51.9231 148.267 50.3913 147.811 49.8093C147.355 49.2277 146.62 48.9368 145.605 48.9368C145.178 48.9368 144.77 48.9404 144.381 48.9472C144.381 50.7488 144.414 52.568 144.48 54.4047H141.414C141.51 52.2875 141.558 49.9006 141.558 47.2437C141.558 44.692 141.51 42.5152 141.414 40.7134H143.322C143.542 40.7134 144.004 40.703 144.706 40.6821C145.408 40.661 146.057 40.6504 146.653 40.6504C150.028 40.6504 151.715 41.7513 151.715 43.9524C151.715 45.6981 150.752 46.9144 148.825 47.6012V47.7591C149.568 47.9554 150.219 48.5075 150.778 49.4152C151.337 50.3231 152.091 51.9864 153.039 54.4047ZM148.904 44.7303C148.904 43.3356 147.962 42.6379 146.08 42.6379C145.389 42.6379 144.778 42.687 144.249 42.785C144.33 43.872 144.371 45.2877 144.371 47.0332C144.775 47.0474 145.117 47.0542 145.396 47.0542C147.734 47.0544 148.904 46.28 148.904 44.7303Z" fill="#003366"/>
<path d="M167.16 54.405H163.632C163.632 53.9422 163.297 52.6318 162.628 50.4722H157.532C156.841 52.5964 156.495 53.9073 156.495 54.405H153.175C153.175 54.1316 154.034 51.8885 155.751 47.6751C157.468 43.4621 158.326 41.1415 158.326 40.7139H162.494C162.494 41.1134 163.273 43.4007 164.827 47.5753C166.383 51.75 167.16 54.0266 167.16 54.405ZM162.065 48.4642C160.809 44.8467 160.179 42.8907 160.179 42.5964H160.003C160.003 42.87 159.353 44.8258 158.051 48.4642H162.065Z" fill="#003366"/>
<path d="M187.296 40.7142C187.296 41.3662 186.561 43.6796 185.09 47.6542C183.619 51.6295 182.884 53.8795 182.884 54.4053H179.972C179.972 53.8515 179.528 52.2917 178.638 49.7256C177.69 46.978 177.157 45.1659 177.038 44.2895H176.851C176.733 45.1726 176.24 46.999 175.372 49.7678C174.564 52.3547 174.159 53.9007 174.159 54.405H171.181C171.181 53.7463 170.458 51.401 169.008 47.3702C167.56 43.3392 166.835 41.1206 166.835 40.7139H170.332C170.332 41.1557 170.751 42.915 171.59 45.9926C172.427 49.0703 172.848 50.8967 172.848 51.471H173.024C173.024 50.8964 173.472 49.1035 174.369 46.0924C175.266 43.0815 175.715 41.2887 175.715 40.7139H178.858C178.858 41.2398 179.306 43.064 180.203 46.1873C181.101 49.3104 181.55 51.0717 181.55 51.4713H181.726C181.726 50.9667 182.132 49.2525 182.944 46.3296C183.757 43.406 184.163 41.5345 184.163 40.7142H187.296Z" fill="#003366"/>
<path d="M191.901 54.405H188.779C188.875 52.2318 188.923 49.845 188.923 47.2441C188.923 44.6853 188.875 42.5084 188.779 40.7139H191.901C191.805 42.4804 191.757 44.6572 191.757 47.2441C191.757 49.887 191.805 52.2743 191.901 54.405Z" fill="#003366"/>
<path d="M99.0353 13.61C97.9819 13.0788 96.5466 13.2659 94.7297 14.171C93.263 14.8998 92.3757 15.7953 92.066 16.8585C92.0242 17.0164 92.0347 17.1737 92.0966 17.3311C92.4685 18.0987 93.7794 18.5419 96.0305 18.66C98.2813 18.7779 99.4689 19.3096 99.5928 20.2545C99.8608 22.1247 99.4378 23.4928 98.3227 24.3595C95.2455 26.7023 91.7868 27.9429 87.946 28.0804C83.1341 28.2576 80.5739 26.545 80.2642 22.9418C80.1196 21.1306 80.543 19.2407 81.5341 17.2717C82.0919 16.1894 82.7005 15.2443 83.3616 14.4365C83.6713 14.043 83.9397 13.9544 84.1669 14.1708C84.394 14.3879 84.3322 14.7321 83.9814 15.2045C82.1848 17.7252 81.6165 19.8117 82.2776 21.4651C83.124 23.5125 85.1065 24.5071 88.2246 24.4478C91.9004 24.3886 94.9258 23.5025 97.3006 21.7899C96.8253 21.6327 95.8138 21.5046 94.2652 21.4061C92.2204 21.2487 91.0227 20.6779 90.6719 19.6933C90.3003 18.6697 90.3206 17.5962 90.7339 16.4741C91.6422 14.0333 93.0462 12.153 94.9465 10.8336C96.5365 9.73142 97.951 9.32771 99.1901 9.62271C100.388 9.91826 100.728 10.9915 100.212 12.8418C99.985 13.6296 99.5928 13.8857 99.0353 13.61Z" fill="#003366"/>
<path d="M106.772 15.7066C107.577 13.6002 108.465 12.5571 109.436 12.5764C110.158 12.5963 110.809 13.0489 111.387 13.935C111.924 14.7816 112.244 15.7563 112.347 16.8587C112.45 17.9416 112.264 19.3888 111.79 21.1998C111.335 22.9911 110.437 24.6551 109.095 26.1908C107.752 27.7262 106.627 28.5338 105.719 28.6124C104.975 28.7105 103.88 28.6124 102.435 28.3168C101.733 28.1788 101.109 28.0362 100.561 27.8887C100.014 27.7408 99.5652 27.5979 99.2138 27.4602C98.9867 27.3615 98.9039 27.1944 98.966 26.9582C99.0281 26.7022 99.2246 26.6039 99.5544 26.6627C100.793 26.8399 102.27 26.7413 103.984 26.3674C104.831 26.1903 106.069 25.4223 107.701 24.064C108.527 23.3746 109.193 22.7594 109.699 22.2182C110.205 21.6769 110.53 21.1896 110.675 20.7564C110.654 20.6581 110.618 20.535 110.566 20.3873C110.514 20.2397 110.458 20.0773 110.396 19.9C109.529 20.9634 108.485 21.2291 107.267 20.6976C105.884 20.107 105.719 18.4436 106.772 15.7066ZM109.714 17.0948C109.115 16.1697 108.475 16.1303 107.794 16.9768C108.31 17.5281 108.95 17.5675 109.714 17.0948Z" fill="#003366"/>
<path d="M118.98 1.48669C119.385 0.657237 119.648 0.849974 119.77 2.06543L120.498 9.12735C121.105 15.4556 120.963 19.4405 120.073 21.0799C119.871 21.4272 119.679 21.572 119.496 21.5139C119.294 21.4563 119.203 20.9931 119.223 20.1248C119.243 19.3917 119.163 18.181 118.98 16.4927C118.798 14.8044 118.525 12.6578 118.161 10.0535L117.523 5.24904C117.462 4.84398 117.523 4.44885 117.705 4.06257L118.98 1.48669Z" fill="#003366"/>
<path d="M117.79 26.2484C117.48 26.0315 117.367 25.7953 117.449 25.5397C117.532 25.2837 117.79 25.2048 118.224 25.3029C120.227 25.697 121.889 25.6474 123.21 25.1556C125.915 24.1711 127.826 22.7045 128.941 20.7552C128.92 20.4012 128.383 19.5253 127.33 18.127C127.186 17.9697 127.144 17.7828 127.206 17.5659L128.074 14.5536C128.424 13.3725 128.961 13.5199 129.684 14.9965C130.634 17.0045 130.851 19.1409 130.335 21.4048C130.025 22.7634 129.24 24.1708 127.981 25.6276C126.721 27.0846 125.441 27.8915 124.14 28.0491C122.012 28.286 119.896 27.6854 117.79 26.2484Z" fill="#003366"/>
<path d="M135.104 12.8714C135.145 13.0684 135.187 13.3787 135.228 13.8018C135.269 14.2254 135.331 14.7518 135.414 15.3818C135.579 16.6418 135.806 17.4688 136.096 17.8624C136.406 18.2757 136.859 18.5415 137.458 18.6598C138.037 18.7777 138.388 19.0835 138.512 19.5753C138.553 19.6934 138.558 19.841 138.527 20.0182C138.496 20.1953 138.45 20.4218 138.388 20.6973C138.14 21.6819 137.779 22.174 137.304 22.174C134.991 22.174 133.835 20.294 133.835 16.5333C133.029 18.069 131.759 18.8269 130.025 18.8072C128.93 18.8072 128.28 18.3155 128.073 17.3306C127.929 16.5237 128.022 15.9428 128.352 15.5885C128.848 15.057 129.312 14.9386 129.746 15.2341C129.87 15.313 129.963 15.3721 130.025 15.4113C131.202 15.4902 132.027 15.352 132.502 14.9979C132.977 14.6436 133.411 13.8954 133.804 12.7535C133.948 12.3208 134.185 12.1332 134.516 12.1922C134.846 12.2513 135.042 12.4779 135.104 12.8714Z" fill="#003366"/>
<path d="M165.969 16.7988C166.134 16.3657 166.413 16.2181 166.805 16.3559C167.178 16.5139 167.229 16.8777 166.96 17.4483L166.681 17.9798C168.913 18.7476 170.511 18.1571 171.484 16.2077C171.669 15.7749 171.948 15.637 172.319 15.7943C172.67 15.9521 172.752 16.2573 172.567 16.7099C172.381 17.1823 172.289 17.4974 172.289 17.655C172.329 18.0881 172.732 18.3441 173.496 18.4228C174.261 18.5017 174.767 18.3836 175.014 18.0681C175.282 17.7141 175.52 17.0448 175.728 16.0603C175.79 15.7849 175.964 15.647 176.254 15.647C176.543 15.647 176.728 15.7651 176.811 16.0013C177.45 17.6358 178.4 18.5117 179.661 18.6295C180.135 18.6888 180.444 19.0429 180.59 19.6927C180.735 20.3032 180.723 20.8739 180.559 21.4056C180.394 21.9173 180.094 22.1733 179.661 22.1733C177.802 22.1733 176.543 21.1694 175.882 19.161C175.737 19.5943 175.582 20.0029 175.417 20.3863C175.252 20.7704 175.087 21.1201 174.922 21.4343C174.611 22.0056 174.146 22.3105 173.528 22.3502C172.082 22.4092 170.967 21.9758 170.183 21.0508C169.357 21.7789 168.375 22.1432 167.24 22.1432C166.104 22.1432 165.205 21.8281 164.545 21.1981C164.152 21.5132 163.744 21.754 163.321 21.9215C162.897 22.0885 162.469 22.1728 162.036 22.1728C161.478 22.1728 161.118 21.6905 160.951 20.7257C160.931 20.6076 160.91 20.4647 160.889 20.2973C160.869 20.1303 160.848 19.9383 160.828 19.7211C160.786 19.2294 161.024 18.8944 161.54 18.7172C161.725 18.6582 161.892 18.6287 162.036 18.6287C164.245 18.492 165.555 17.8817 165.969 16.7988Z" fill="#003366"/>
<path d="M169.593 4.72036C169.717 4.56279 169.893 4.51341 170.12 4.57247C170.534 4.71072 170.93 4.88787 171.312 5.10396C171.694 5.32086 172.051 5.567 172.381 5.84214C172.546 5.99998 172.578 6.17715 172.475 6.37363L170.987 8.61773C170.843 8.81503 170.657 8.8349 170.43 8.67705C170.223 8.51975 169.48 8.07685 168.201 7.34833C167.972 7.23021 167.931 7.0729 168.075 6.87561L169.593 4.72036Z" fill="#003366"/>
<path d="M135.95 25.9376C136.074 25.78 136.249 25.7307 136.477 25.7897C136.89 25.9279 137.287 26.1052 137.669 26.3213C138.051 26.5381 138.407 26.7843 138.738 27.0595C138.903 27.2172 138.934 27.3945 138.831 27.5909L137.344 29.8353C137.199 30.0323 137.013 30.0521 136.787 29.8944C136.58 29.737 135.837 29.2941 134.556 28.5657C134.329 28.4476 134.288 28.2901 134.432 28.0929L135.95 25.9376Z" fill="#003366"/>
<path d="M131.428 25.9376C131.552 25.78 131.727 25.7307 131.955 25.7897C132.367 25.9279 132.765 26.1052 133.147 26.3213C133.529 26.5381 133.885 26.7843 134.216 27.0595C134.381 27.2172 134.412 27.3945 134.309 27.5909L132.822 29.8353C132.677 30.0323 132.491 30.0521 132.264 29.8944C132.058 29.737 131.314 29.2941 130.034 28.5657C129.807 28.4476 129.765 28.2901 129.91 28.0929L131.428 25.9376Z" fill="#003366"/>
<path d="M172.001 8.16324C172.124 8.00567 172.299 7.95628 172.527 8.01533C172.939 8.15358 173.336 8.33073 173.72 8.54682C174.1 8.76372 174.457 9.00987 174.787 9.28502C174.952 9.44285 174.984 9.62003 174.881 9.81652L173.393 12.0606C173.249 12.2579 173.063 12.2778 172.836 12.1199C172.63 11.9626 171.886 11.5197 170.606 10.7912C170.378 10.6731 170.337 10.5158 170.483 10.3185L172.001 8.16324Z" fill="#003366"/>
<path d="M167.542 8.16324C167.666 8.00567 167.842 7.95628 168.069 8.01533C168.481 8.15358 168.879 8.33073 169.262 8.54682C169.644 8.76372 169.999 9.00987 170.331 9.28502C170.495 9.44285 170.526 9.62003 170.422 9.81652L168.936 12.0606C168.792 12.2579 168.605 12.2778 168.38 12.1199C168.172 11.9626 167.428 11.5197 166.148 10.7912C165.922 10.6731 165.88 10.5158 166.025 10.3185L167.542 8.16324Z" fill="#003366"/>
<path d="M90.9954 30.5925C91.1193 30.4349 91.2944 30.3854 91.522 30.4446C91.9346 30.5828 92.3322 30.7599 92.7146 30.976C93.0964 31.193 93.4526 31.439 93.7831 31.7142C93.948 31.8721 93.9793 32.0492 93.876 32.2457L92.3893 34.49C92.2447 34.687 92.0585 34.707 91.8316 34.5491C91.6249 34.3919 90.8817 33.9489 89.6014 33.2204C89.374 33.1023 89.3329 32.945 89.4775 32.7476L90.9954 30.5925Z" fill="#003366"/>
<path d="M86.535 30.5925C86.6589 30.4349 86.8339 30.3854 87.0615 30.4446C87.4742 30.5828 87.8718 30.7599 88.2542 30.976C88.6359 31.193 88.9921 31.439 89.3226 31.7142C89.4876 31.8721 89.5188 32.0492 89.4156 32.2457L87.9289 34.49C87.7843 34.687 87.5981 34.707 87.3711 34.5491C87.1645 34.3919 86.4213 33.9489 85.1409 33.2204C84.9135 33.1023 84.8724 32.945 85.0171 32.7476L86.535 30.5925Z" fill="#003366"/>
<path d="M182.263 4.80899C183.09 10.6171 183.399 14.6036 183.193 16.7693C182.863 20.0376 181.675 21.8387 179.631 22.1736C179.115 22.252 178.825 21.9471 178.763 21.2583C178.742 21.0416 178.727 20.8004 178.717 20.5346C178.706 20.2692 178.712 19.9787 178.733 19.6635C178.774 19.0335 179.072 18.6891 179.631 18.6298C180.787 18.512 181.519 18.1769 181.83 17.6258C181.81 17.3896 181.659 16.1935 181.381 14.0377C181.102 11.8819 180.673 8.76622 180.095 4.69115C180.033 4.31723 179.976 4.0072 179.926 3.76077C179.873 3.51489 179.827 3.32296 179.786 3.18471C179.58 2.71227 179.589 2.25969 179.816 1.82617L180.592 0.349795C180.88 -0.22116 181.18 -0.0931204 181.489 0.733652C181.654 1.12771 181.846 1.49171 182.062 1.82617C182.279 2.16118 182.552 2.45673 182.883 2.71227C183.316 3.04727 183.358 3.43112 183.007 3.86411L182.263 4.80899Z" fill="#003366"/>
<path d="M188.122 1.49402C188.526 0.664561 188.79 0.857298 188.91 2.07277L189.64 9.13467C190.247 15.4632 190.104 19.4479 189.215 21.0872C189.012 21.4346 188.82 21.5792 188.637 21.5215C188.434 21.4635 188.344 21.0004 188.365 20.1324C188.384 19.3993 188.304 18.1887 188.122 16.5C187.94 14.8118 187.667 12.6651 187.302 10.0608L186.664 5.25665C186.604 4.85132 186.664 4.45617 186.847 4.06991L188.122 1.49402Z" fill="#003366"/>
<path d="M137.352 18.6594L137.486 18.6592L162.038 18.6299V22.1737L137.169 22.1733L135.643 19.5842L137.218 18.6589L137.352 18.6594Z" fill="#003366"/>
</g>
<defs>
<clipPath id="clip0_1101_374">
<rect width="191.901" height="62" fill="white"/>
</clipPath>
</defs>
</svg>
